<svg xmlns="http://www.w3.org/2000/svg" xmlns:xlink="http://www.w3.org/1999/xlink" width="276" zoomAndPan="magnify" viewBox="0 0 206.87999 174.749997" height="233" preserveAspectRatio="xMidYMid meet" version="1.0"><defs><g/><clipPath id="66208362db"><path d="M 28.289062 0 L 178.074219 0 L 178.074219 140 L 28.289062 140 Z M 28.289062 0 " clip-rule="nonzero"/></clipPath></defs><g clip-path="url(#66208362db)"><path fill="#ffffff" d="M 86.3125 57.59375 L 86.3125 0 L 28.304688 57.980469 L 28.304688 139.792969 L 33.890625 139.792969 L 33.890625 60.320312 L 80.699219 13.511719 L 80.699219 55.117188 L 57.996094 45.019531 L 57.996094 139.792969 L 86.3125 139.792969 L 86.3125 70.722656 L 80.726562 67.832031 L 80.726562 134.234375 L 63.609375 134.234375 L 63.609375 53.605469 L 80.726562 61.226562 L 86.3125 63.703125 L 172.472656 102.011719 L 172.472656 139.792969 L 178.058594 139.792969 L 178.058594 98.40625 Z M 86.3125 57.59375 " fill-opacity="1" fill-rule="nonzero"/></g><g fill="#ffffff" fill-opacity="1"><g transform="translate(23.073336, 156.414204)"><g><path d="M 1.6875 0 L 1.6875 -10.4375 L 5.65625 -10.4375 C 6.613281 -10.4375 7.378906 -10.1875 7.953125 -9.6875 C 8.523438 -9.195312 8.8125 -8.539062 8.8125 -7.71875 C 8.8125 -7.15625 8.664062 -6.671875 8.375 -6.265625 C 8.09375 -5.859375 7.703125 -5.5625 7.203125 -5.375 C 7.804688 -5.195312 8.273438 -4.890625 8.609375 -4.453125 C 8.941406 -4.015625 9.109375 -3.476562 9.109375 -2.84375 C 9.109375 -1.96875 8.8125 -1.273438 8.21875 -0.765625 C 7.625 -0.253906 6.820312 0 5.8125 0 Z M 2.59375 -0.84375 L 5.78125 -0.84375 C 6.539062 -0.84375 7.128906 -1.019531 7.546875 -1.375 C 7.972656 -1.738281 8.1875 -2.238281 8.1875 -2.875 C 8.1875 -3.519531 7.972656 -4.019531 7.546875 -4.375 C 7.117188 -4.726562 6.515625 -4.90625 5.734375 -4.90625 L 2.59375 -4.90625 Z M 2.59375 -5.734375 L 5.625 -5.734375 C 6.332031 -5.734375 6.882812 -5.898438 7.28125 -6.234375 C 7.6875 -6.578125 7.890625 -7.050781 7.890625 -7.65625 C 7.890625 -8.257812 7.6875 -8.726562 7.28125 -9.0625 C 6.882812 -9.40625 6.335938 -9.578125 5.640625 -9.578125 L 2.59375 -9.578125 Z M 2.59375 -5.734375 "/></g></g></g><g fill="#ffffff" fill-opacity="1"><g transform="translate(39.46406, 156.414204)"><g><path d="M 6.328125 0.1875 C 5.273438 0.1875 4.34375 -0.0351562 3.53125 -0.484375 C 2.726562 -0.941406 2.097656 -1.578125 1.640625 -2.390625 C 1.179688 -3.210938 0.953125 -4.15625 0.953125 -5.21875 C 0.953125 -6.28125 1.179688 -7.21875 1.640625 -8.03125 C 2.097656 -8.84375 2.726562 -9.476562 3.53125 -9.9375 C 4.34375 -10.394531 5.273438 -10.625 6.328125 -10.625 C 7.398438 -10.625 8.335938 -10.394531 9.140625 -9.9375 C 9.953125 -9.476562 10.582031 -8.84375 11.03125 -8.03125 C 11.488281 -7.21875 11.71875 -6.28125 11.71875 -5.21875 C 11.71875 -4.15625 11.488281 -3.210938 11.03125 -2.390625 C 10.582031 -1.578125 9.953125 -0.941406 9.140625 -0.484375 C 8.335938 -0.0351562 7.398438 0.1875 6.328125 0.1875 Z M 1.875 -5.21875 C 1.875 -4.332031 2.0625 -3.546875 2.4375 -2.859375 C 2.820312 -2.179688 3.347656 -1.65625 4.015625 -1.28125 C 4.679688 -0.90625 5.453125 -0.71875 6.328125 -0.71875 C 7.210938 -0.71875 7.988281 -0.90625 8.65625 -1.28125 C 9.332031 -1.65625 9.859375 -2.179688 10.234375 -2.859375 C 10.617188 -3.546875 10.8125 -4.332031 10.8125 -5.21875 C 10.8125 -6.113281 10.617188 -6.898438 10.234375 -7.578125 C 9.859375 -8.253906 9.332031 -8.78125 8.65625 -9.15625 C 7.988281 -9.53125 7.210938 -9.71875 6.328125 -9.71875 C 5.453125 -9.71875 4.679688 -9.53125 4.015625 -9.15625 C 3.347656 -8.78125 2.820312 -8.253906 2.4375 -7.578125 C 2.0625 -6.898438 1.875 -6.113281 1.875 -5.21875 Z M 1.875 -5.21875 "/></g></g></g><g fill="#ffffff" fill-opacity="1"><g transform="translate(58.44679, 156.414204)"><g><path d="M 6.234375 0.1875 C 5.210938 0.1875 4.300781 -0.0390625 3.5 -0.5 C 2.707031 -0.957031 2.082031 -1.59375 1.625 -2.40625 C 1.175781 -3.226562 0.953125 -4.164062 0.953125 -5.21875 C 0.953125 -6.269531 1.175781 -7.203125 1.625 -8.015625 C 2.082031 -8.828125 2.707031 -9.460938 3.5 -9.921875 C 4.289062 -10.390625 5.191406 -10.625 6.203125 -10.625 C 7.003906 -10.625 7.738281 -10.476562 8.40625 -10.1875 C 9.082031 -9.90625 9.660156 -9.507812 10.140625 -9 C 10.617188 -8.488281 10.960938 -7.894531 11.171875 -7.21875 L 10.203125 -7.21875 C 9.867188 -7.988281 9.359375 -8.597656 8.671875 -9.046875 C 7.984375 -9.492188 7.175781 -9.71875 6.25 -9.71875 C 5.382812 -9.71875 4.625 -9.53125 3.96875 -9.15625 C 3.3125 -8.78125 2.796875 -8.253906 2.421875 -7.578125 C 2.054688 -6.898438 1.875 -6.113281 1.875 -5.21875 C 1.875 -4.332031 2.054688 -3.546875 2.421875 -2.859375 C 2.796875 -2.179688 3.3125 -1.65625 3.96875 -1.28125 C 4.632812 -0.90625 5.394531 -0.71875 6.25 -0.71875 C 7.0625 -0.71875 7.773438 -0.882812 8.390625 -1.21875 C 9.003906 -1.550781 9.5 -2.007812 9.875 -2.59375 C 10.25 -3.1875 10.46875 -3.863281 10.53125 -4.625 L 5.90625 -4.625 L 5.90625 -5.484375 L 11.5 -5.484375 C 11.5 -4.378906 11.28125 -3.398438 10.84375 -2.546875 C 10.414062 -1.691406 9.804688 -1.019531 9.015625 -0.53125 C 8.222656 -0.0507812 7.296875 0.1875 6.234375 0.1875 Z M 6.234375 0.1875 "/></g></g></g><g fill="#ffffff" fill-opacity="1"><g transform="translate(77.161378, 156.414204)"><g><path d="M 1.6875 0 L 1.6875 -10.4375 L 4.984375 -10.4375 C 6.085938 -10.4375 7.046875 -10.21875 7.859375 -9.78125 C 8.671875 -9.351562 9.296875 -8.75 9.734375 -7.96875 C 10.179688 -7.1875 10.40625 -6.269531 10.40625 -5.21875 C 10.40625 -4.175781 10.179688 -3.257812 9.734375 -2.46875 C 9.296875 -1.6875 8.671875 -1.078125 7.859375 -0.640625 C 7.046875 -0.210938 6.085938 0 4.984375 0 Z M 2.59375 -0.859375 L 4.984375 -0.859375 C 5.898438 -0.859375 6.695312 -1.035156 7.375 -1.390625 C 8.050781 -1.753906 8.570312 -2.257812 8.9375 -2.90625 C 9.300781 -3.5625 9.484375 -4.332031 9.484375 -5.21875 C 9.484375 -6.101562 9.296875 -6.867188 8.921875 -7.515625 C 8.554688 -8.171875 8.035156 -8.675781 7.359375 -9.03125 C 6.679688 -9.382812 5.878906 -9.5625 4.953125 -9.5625 L 2.59375 -9.5625 Z M 2.59375 -0.859375 "/></g></g></g><g fill="#ffffff" fill-opacity="1"><g transform="translate(94.83321, 156.414204)"><g><path d="M 0.328125 0 L 4.65625 -10.4375 L 5.515625 -10.4375 L 9.84375 0 L 8.890625 0 L 7.796875 -2.625 L 2.375 -2.625 L 1.296875 0 Z M 2.734375 -3.453125 L 7.453125 -3.453125 L 5.078125 -9.203125 Z M 2.734375 -3.453125 "/></g></g></g><g fill="#ffffff" fill-opacity="1"><g transform="translate(111.328213, 156.414204)"><g><path d="M 1.6875 0 L 1.6875 -10.4375 L 2.53125 -10.4375 L 8.890625 -1.5625 L 8.890625 -10.4375 L 9.78125 -10.4375 L 9.78125 0 L 8.921875 0 L 2.578125 -8.890625 L 2.578125 0 Z M 1.6875 0 "/></g></g></g><g fill="#ffffff" fill-opacity="1"><g transform="translate(129.104318, 156.414204)"><g/></g></g><g fill="#ffffff" fill-opacity="1"><g transform="translate(139.417227, 156.414204)"><g><path d="M 1.6875 0 L 1.6875 -10.4375 L 5.65625 -10.4375 C 6.613281 -10.4375 7.378906 -10.1875 7.953125 -9.6875 C 8.523438 -9.195312 8.8125 -8.539062 8.8125 -7.71875 C 8.8125 -7.15625 8.664062 -6.671875 8.375 -6.265625 C 8.09375 -5.859375 7.703125 -5.5625 7.203125 -5.375 C 7.804688 -5.195312 8.273438 -4.890625 8.609375 -4.453125 C 8.941406 -4.015625 9.109375 -3.476562 9.109375 -2.84375 C 9.109375 -1.96875 8.8125 -1.273438 8.21875 -0.765625 C 7.625 -0.253906 6.820312 0 5.8125 0 Z M 2.59375 -0.84375 L 5.78125 -0.84375 C 6.539062 -0.84375 7.128906 -1.019531 7.546875 -1.375 C 7.972656 -1.738281 8.1875 -2.238281 8.1875 -2.875 C 8.1875 -3.519531 7.972656 -4.019531 7.546875 -4.375 C 7.117188 -4.726562 6.515625 -4.90625 5.734375 -4.90625 L 2.59375 -4.90625 Z M 2.59375 -5.734375 L 5.625 -5.734375 C 6.332031 -5.734375 6.882812 -5.898438 7.28125 -6.234375 C 7.6875 -6.578125 7.890625 -7.050781 7.890625 -7.65625 C 7.890625 -8.257812 7.6875 -8.726562 7.28125 -9.0625 C 6.882812 -9.40625 6.335938 -9.578125 5.640625 -9.578125 L 2.59375 -9.578125 Z M 2.59375 -5.734375 "/></g></g></g><g fill="#ffffff" fill-opacity="1"><g transform="translate(155.807946, 156.414204)"><g><path d="M 0.328125 0 L 4.65625 -10.4375 L 5.515625 -10.4375 L 9.84375 0 L 8.890625 0 L 7.796875 -2.625 L 2.375 -2.625 L 1.296875 0 Z M 2.734375 -3.453125 L 7.453125 -3.453125 L 5.078125 -9.203125 Z M 2.734375 -3.453125 "/></g></g></g><g fill="#ffffff" fill-opacity="1"><g transform="translate(172.302944, 156.414204)"><g><path d="M 5.484375 0.171875 C 4.265625 0.171875 3.300781 -0.207031 2.59375 -0.96875 C 1.894531 -1.726562 1.546875 -2.773438 1.546875 -4.109375 L 1.546875 -10.4375 L 2.4375 -10.4375 L 2.4375 -4.15625 C 2.4375 -3.039062 2.703125 -2.1875 3.234375 -1.59375 C 3.773438 -1 4.523438 -0.703125 5.484375 -0.703125 C 6.460938 -0.703125 7.210938 -1 7.734375 -1.59375 C 8.265625 -2.1875 8.53125 -3.039062 8.53125 -4.15625 L 8.53125 -10.4375 L 9.421875 -10.4375 L 9.421875 -4.109375 C 9.421875 -2.773438 9.066406 -1.726562 8.359375 -0.96875 C 7.660156 -0.207031 6.703125 0.171875 5.484375 0.171875 Z M 5.484375 0.171875 "/></g></g></g><g fill="#ffffff" fill-opacity="1"><g transform="translate(82.62936, 168.588434)"><g><path d="M 3.953125 0.125 C 3.304688 0.125 2.726562 -0.0195312 2.21875 -0.3125 C 1.71875 -0.601562 1.320312 -1.007812 1.03125 -1.53125 C 0.75 -2.050781 0.609375 -2.644531 0.609375 -3.3125 C 0.609375 -3.976562 0.75 -4.570312 1.03125 -5.09375 C 1.320312 -5.613281 1.71875 -6.019531 2.21875 -6.3125 C 2.71875 -6.601562 3.289062 -6.75 3.9375 -6.75 C 4.445312 -6.75 4.914062 -6.65625 5.34375 -6.46875 C 5.769531 -6.289062 6.132812 -6.039062 6.4375 -5.71875 C 6.738281 -5.394531 6.960938 -5.015625 7.109375 -4.578125 L 6.484375 -4.578125 C 6.273438 -5.078125 5.953125 -5.46875 5.515625 -5.75 C 5.078125 -6.03125 4.5625 -6.171875 3.96875 -6.171875 C 3.414062 -6.171875 2.929688 -6.050781 2.515625 -5.8125 C 2.097656 -5.570312 1.769531 -5.238281 1.53125 -4.8125 C 1.300781 -4.382812 1.1875 -3.882812 1.1875 -3.3125 C 1.1875 -2.75 1.300781 -2.25 1.53125 -1.8125 C 1.769531 -1.382812 2.097656 -1.050781 2.515625 -0.8125 C 2.941406 -0.570312 3.425781 -0.453125 3.96875 -0.453125 C 4.488281 -0.453125 4.941406 -0.554688 5.328125 -0.765625 C 5.722656 -0.984375 6.035156 -1.28125 6.265625 -1.65625 C 6.503906 -2.03125 6.644531 -2.457031 6.6875 -2.9375 L 3.75 -2.9375 L 3.75 -3.484375 L 7.296875 -3.484375 C 7.304688 -2.785156 7.171875 -2.164062 6.890625 -1.625 C 6.617188 -1.082031 6.226562 -0.65625 5.71875 -0.34375 C 5.21875 -0.03125 4.628906 0.125 3.953125 0.125 Z M 3.953125 0.125 "/></g></g></g><g fill="#ffffff" fill-opacity="1"><g transform="translate(94.144065, 168.588434)"><g><path d="M 1.0625 0 L 1.0625 -6.625 L 1.609375 -6.625 L 4.359375 -2.484375 L 7.125 -6.625 L 7.65625 -6.625 L 7.65625 0 L 7.078125 0 L 7.078125 -5.5625 L 4.609375 -1.84375 L 4.125 -1.84375 L 1.640625 -5.5625 L 1.640625 0 Z M 1.0625 0 "/></g></g></g><g fill="#ffffff" fill-opacity="1"><g transform="translate(106.501337, 168.588434)"><g><path d="M 1.0625 0 L 1.0625 -6.625 L 3.59375 -6.625 C 4.195312 -6.625 4.679688 -6.46875 5.046875 -6.15625 C 5.410156 -5.84375 5.59375 -5.425781 5.59375 -4.90625 C 5.59375 -4.539062 5.503906 -4.226562 5.328125 -3.96875 C 5.148438 -3.71875 4.898438 -3.535156 4.578125 -3.421875 C 4.960938 -3.304688 5.257812 -3.109375 5.46875 -2.828125 C 5.675781 -2.554688 5.78125 -2.21875 5.78125 -1.8125 C 5.78125 -1.25 5.59375 -0.804688 5.21875 -0.484375 C 4.84375 -0.160156 4.332031 0 3.6875 0 Z M 1.640625 -0.546875 L 3.671875 -0.546875 C 4.148438 -0.546875 4.523438 -0.65625 4.796875 -0.875 C 5.066406 -1.101562 5.203125 -1.421875 5.203125 -1.828125 C 5.203125 -2.234375 5.066406 -2.546875 4.796875 -2.765625 C 4.523438 -2.992188 4.140625 -3.109375 3.640625 -3.109375 L 1.640625 -3.109375 Z M 1.640625 -3.640625 L 3.5625 -3.640625 C 4.019531 -3.640625 4.375 -3.75 4.625 -3.96875 C 4.882812 -4.1875 5.015625 -4.484375 5.015625 -4.859375 C 5.015625 -5.242188 4.882812 -5.546875 4.625 -5.765625 C 4.375 -5.984375 4.023438 -6.09375 3.578125 -6.09375 L 1.640625 -6.09375 Z M 1.640625 -3.640625 "/></g></g></g><g fill="#ffffff" fill-opacity="1"><g transform="translate(116.539189, 168.588434)"><g><path d="M 5.53125 0 L 5.53125 -3.109375 L 1.640625 -3.109375 L 1.640625 0 L 1.0625 0 L 1.0625 -6.625 L 1.640625 -6.625 L 1.640625 -3.65625 L 5.53125 -3.65625 L 5.53125 -6.625 L 6.109375 -6.625 L 6.109375 0 Z M 5.53125 0 "/></g></g></g><path stroke-linecap="butt" transform="matrix(0.748929, 0.000000000000000162, -0.000000000000000162, 0.748929, 4.559991, 139.425536)" fill="none" stroke-linejoin="miter" d="M -0.00186579 0.501043 L 263.374402 0.501043 " stroke="#ffffff" stroke-width="1" stroke-opacity="1" stroke-miterlimit="4"/></svg>